<svg xmlns="http://www.w3.org/2000/svg" version="1.1" width="1024" height="1024" viewBox="-3 -3 1030 1030"><g id="deeditor_bgCarrier" stroke-width="0">
  <rect id="dee_c_e" x="-3" y="-3" width="1030" height="1030" rx="38.4" fill="#576f35" strokewidth="0"/>
</g>
<title/>
<g id="icomoon-ignore">
</g>
<path d="M930.628 10.043h-128.302c-39.589 0-71.686 31.451-71.686 70.25v125.737c0 38.799 32.097 70.253 71.686 70.253h128.302c39.595 0 71.686-31.453 71.686-70.253v-125.737c0-38.799-32.091-70.25-71.686-70.25z" fill="#fbfbfb"/>
<path d="M215.372 737.28h-138.173c-42.636 0-77.199 31.454-77.199 70.252v125.736c0 38.798 34.563 70.252 77.199 70.252h138.173c42.636 0 77.199-31.454 77.199-70.252v-125.736c0-38.798-34.563-70.252-77.199-70.252z" fill="#fbfbfb"/>
<path d="M199.987 370.618h-128.303c-39.589 0-71.684 31.452-71.684 70.251v125.736c0 38.8 32.102 70.254 71.691 70.254h128.296c39.591 0 71.686-31.454 71.686-70.254v-125.736c0-38.799-32.095-70.251-71.686-70.251z" fill="#fbfbfb"/>
<path d="M568.509 735.3h-128.303c-39.589 0-71.685 31.454-71.685 70.252l-0.007 125.736c0 38.798 32.109 70.252 71.699 70.252h128.295c39.594 0 71.685-31.454 71.685-70.252v-125.736c0-38.798-32.091-70.252-71.685-70.252z" fill="#fbfbfb"/>
<path d="M199.987 2.761h-128.303c-39.589 0-71.684 31.451-71.684 70.25v125.737c0 38.799 32.102 70.253 71.691 70.253h128.296c39.591 0 71.686-31.453 71.686-70.253v-125.737c0-38.799-32.095-70.25-71.686-70.25z" fill="#fbfbfb"/>
<path d="M578.429 374.319h-128.304c-39.59 0-71.685 31.451-71.685 70.25v125.736c0 38.798 32.102 70.252 71.692 70.252h128.296c39.589 0 71.686-31.454 71.686-70.252v-125.736c0-38.799-32.097-70.25-71.686-70.25z" fill="#fbfbfb"/>
<path d="M938.667 735.3h-128.302c-39.589 0-71.686 31.454-71.686 70.252v125.736c0 38.798 32.102 70.252 71.691 70.252h128.296c39.589 0 71.686-31.454 71.686-70.252v-125.736c0-38.798-32.097-70.252-71.686-70.252z" fill="#fbfbfb"/>
<path d="M562.899 7.159h-128.303c-39.589 0-71.684 31.451-71.684 70.251v125.737c0 38.799 32.102 70.252 71.691 70.252h128.296c39.588 0 71.685-31.477 71.685-70.276v-125.713c0-38.8-32.097-70.251-71.685-70.251z" fill="#fbfbfb"/>
<path d="M929.399 381.626h-128.302c-39.589 0-71.686 31.452-71.686 70.251v125.739c0 38.798 32.102 70.252 71.691 70.252h128.296c39.589 0 71.686-31.454 71.686-70.252v-125.739c0-38.799-32.097-70.251-71.686-70.251z" fill="#fbfbfb"/>
</svg>